<?xml version="1.0" standalone="no"?>
<!DOCTYPE svg PUBLIC "-//W3C//DTD SVG 1.1//EN" "http://www.w3.org/Graphics/SVG/1.1/DTD/svg11.dtd" >
<svg xmlns="http://www.w3.org/2000/svg">
<metadata>
Created by FontForge 20120731 at Mon Mar 20 14:44:24 2017
 By admin
</metadata>
<defs>
<font id="iconfont" horiz-adv-x="1024" >
  <font-face 
    font-family="iconfont"
    font-weight="500"
    font-stretch="normal"
    units-per-em="1024"
    panose-1="2 0 6 3 0 0 0 0 0 0"
    ascent="896"
    descent="-128"
    x-height="792"
    bbox="1 -224 1056 896.048"
    underline-thickness="0"
    underline-position="0"
    unicode-range="U+0078-E71A"
  />
<missing-glyph 
 />
    <glyph glyph-name=".notdef" 
 />
    <glyph glyph-name=".notdef" 
 />
    <glyph glyph-name=".null" horiz-adv-x="0" 
 />
    <glyph glyph-name="nonmarkingreturn" horiz-adv-x="341" 
 />
    <glyph glyph-name="x" unicode="x" horiz-adv-x="1001" 
d="M281 543q-27 -1 -53 -1h-83q-18 0 -36.5 -6t-32.5 -18.5t-23 -32t-9 -45.5v-76h912v41q0 16 -0.5 30t-0.5 18q0 13 -5 29t-17 29.5t-31.5 22.5t-49.5 9h-133v-97h-438v97zM955 310v-52q0 -23 0.5 -52t0.5 -58t-10.5 -47.5t-26 -30t-33 -16t-31.5 -4.5q-14 -1 -29.5 -0.5
t-29.5 0.5h-32l-45 128h-439l-44 -128h-29h-34q-20 0 -45 1q-25 0 -41 9.5t-25.5 23t-13.5 29.5t-4 30v167h911zM163 247q-12 0 -21 -8.5t-9 -21.5t9 -21.5t21 -8.5q13 0 22 8.5t9 21.5t-9 21.5t-22 8.5zM316 123q-8 -26 -14 -48q-5 -19 -10.5 -37t-7.5 -25t-3 -15t1 -14.5
t9.5 -10.5t21.5 -4h37h67h81h80h64h36q23 0 34 12t2 38q-5 13 -9.5 30.5t-9.5 34.5q-5 19 -11 39h-368zM336 498v228q0 11 2.5 23t10 21.5t20.5 15.5t34 6h188q31 0 51.5 -14.5t20.5 -52.5v-227h-327z" />
    <glyph glyph-name="mulu" unicode="&#xe600;" 
d="M887 -212h-750q-19 0 -32.5 13.5t-13.5 32.5v841q0 18 13.5 31.5t32.5 13.5h159v92h46v-92h341v92h46v-92h158q19 0 32.5 -13.5t13.5 -31.5v-841q0 -19 -13.5 -32.5t-32.5 -13.5zM888 653q0 10 -6.5 16.5t-15.5 6.5h-137v-92h-46v92h-341v-93l-46 1v92h-138
q-9 0 -15.5 -6.5t-6.5 -16.5v-798q0 -10 6.5 -16.5t15.5 -6.5h708q9 0 15.5 6.5t6.5 16.5v798zM365 105h432v-45h-432v45zM365 287h432v-45h-432v45zM365 469h432v-45h-432v45zM228 105h68v-45h-68v45zM228 287h68v-45h-68v45zM228 469h68v-45h-68v45z" />
    <glyph glyph-name="caijia" unicode="&#xe67b;" 
d="M611 206q-3 -12 -4 -18l0.5 2t1.5 6.5t2 9.5zM874 466q-21 12 -49 16t-60.5 -6.5t-54.5 -37.5v-1q24 66 20 102q-6 52 -42.5 92.5t-85.5 60.5t-99 20q-37 0 -74.5 -13t-69.5 -37.5t-49 -66.5t-10 -94q3 -30 16 -68q-2 3 -4 5q-22 27 -54.5 37.5t-61 6.5t-48.5 -16
q-46 -28 -67 -60t-17.5 -60t21 -53t43.5 -43t54 -26q17 -5 62 -18t81.5 -23.5l36.5 -10.5q20 -39 19 -64q-1 -16 -6.5 -40.5t-10.5 -43.5t-5 -45t9 -49q15 -38 48.5 -53t63.5 2q20 -13 32 -13q14 0 33 11q30 -14 62 1t47 52q9 23 9 49t-5 45t-11 43.5t-6 40.5q-1 25 18 64
l15 4.5t38 11t47.5 13.5t47 13.5t33.5 9.5q28 8 54 26t43 43t20.5 53t-17 60t-66.5 60zM659 172q9 18 21.5 38t20.5 30l8 11q-46 -33 -70.5 -83t-25.5 -83q-1 -10 2 -57t1 -77q-5 -42 -21.5 -56t-38.5 -10q38 32 38 98q0 93 -70 246q38 -124 38 -207q0 -33 -5.5 -57t-14 -36
t-15 -17.5t-12.5 -6.5l-4 3l2 -3h-1h-3q0 1 1 2l1 1q-1 -1 -3 -2q-9 3 -18.5 12.5t-19.5 38t-11 68.5q-2 80 35 195q-70 -146 -66 -234q2 -66 42 -100q-23 -6 -41 7.5t-23 57.5q-3 30 0 77t3 57q-1 33 -25.5 83t-70.5 83q29 -38 49 -79v0q-9 3 -21.5 7.5t-43.5 16.5
t-57.5 28t-54.5 37t-45 49.5t-19 58.5q-2 43 31 60t70 5q53 -16 112 -92.5t76 -135.5q-7 29 -15 57q16 -28 33.5 -55.5t27.5 -41.5l9 -13q-5 8 -12.5 21.5t-27.5 54t-35 79t-27.5 88.5t-12.5 91q1 79 49.5 129.5t125.5 46.5q23 -1 51.5 -16t55.5 -45.5t37 -75t-1 -105.5
q-14 -58 -42 -125t-49 -105l-22 -38q37 54 76 123q-11 -35 -20 -70q18 59 77 135.5t112 92.5q37 12 69.5 -5t30.5 -60q-1 -30 -18 -58.5t-45 -49.5t-55 -37t-58 -28t-43 -16.5t-22 -7.5v0zM410 206q3 -11 4 -18v0q0 7 -4 18z" />
    <glyph glyph-name="circle-more" unicode="&#xe60c;" 
d="M512 777q-102 0 -194.5 -40t-159.5 -107t-106.5 -159.5t-39.5 -194.5t39.5 -194.5t106.5 -159.5t159.5 -106.5t194.5 -39.5t194.5 39.5t159.5 106.5t106.5 159.5t39.5 194.5t-39.5 194.5t-106.5 159.5t-159.5 107t-194.5 40zM512 -130q-110 0 -204 54.5t-148 148t-54 204
t54 204t148 148t204 54.5t204 -54.5t148 -148t54 -204t-54 -204t-148 -148t-204 -54.5zM668 271q0 32 23 55t55.5 23t55.5 -23t23 -55t-23 -55t-55.5 -23t-55.5 23t-23 55zM434 271q0 32 23 55t55 23t55 -23t23 -55t-23 -55t-55 -23t-55 23t-23 55zM199 271q0 32 23 55
t55.5 23t55.5 -23t23 -55t-23 -55t-55.5 -23t-55.5 23t-23 55z" />
    <glyph glyph-name="youhuiquan" unicode="&#xe609;" 
d="M935 386h3q8 -1 14 4.5t6 13.5v157q0 18 -13 31.5t-32 13.5h-803q-19 0 -32 -13.5t-13 -31.5v-505q0 -19 13 -32t32 -13h803q19 0 32 13t13 32v158q0 8 -6 13.5t-14 4.5h-3q-32 0 -54.5 22.5t-22.5 54.5t22.5 54.5t54.5 22.5zM921 196v-140q0 -8 -8 -8h-803q-8 0 -8 8
v505q0 8 8 8h803q8 0 8 -8v-139q-43 -5 -71.5 -37.5t-28.5 -75.5t28.5 -75.5t71.5 -37.5zM224 523h19v-23h-19v23zM224 371h19v-50h-19v50zM224 460h19v-49h-19v49zM224 192h19v-50h-19v50zM224 281h19v-49h-19v49zM224 102h19v-23h-19v23zM705 518h18v-23h-18v23zM705 198
h18v-47h-18v47zM705 284h18v-47h-18v47zM705 457h18v-48h-18v48zM705 370h18v-47h-18v47zM705 112h18v-23h-18v23zM551 457q-73 -119 -76 -126h-1q-3 7 -14 24t-28.5 45.5t-32.5 56.5h-42l80 -134h-66v-29h84v-36h-84v-30h84v-77h37v77h82v30h-82v36h82v29h-65l82 134h-40z
" />
    <glyph glyph-name="xiaolian" unicode="&#xe60a;" 
d="M512 812q-104 0 -199 -40.5t-163 -109t-108.5 -163t-40.5 -199t40.5 -199t108.5 -163t163 -109t199 -40.5t199 40.5t163 109t108.5 163t40.5 199t-40.5 199t-108.5 163t-163 109t-199 40.5zM512 -109q-111 0 -205.5 55t-149 149t-54.5 205.5t54.5 205.5t149 149t205.5 55
t205.5 -55t149 -149t54.5 -205.5t-54.5 -205.5t-149 -149t-205.5 -55zM282 427zM229 427q0 22 15.5 37.5t37.5 15.5t37.5 -15.5t15.5 -37.5t-15.5 -37.5t-37.5 -15.5t-37.5 15.5t-15.5 37.5zM740 427zM688 427q0 22 15.5 37.5t37 15.5t37 -15.5t15.5 -37.5t-15.5 -37.5
t-37 -15.5t-37 15.5t-15.5 37.5zM764 291q0 -105 -74.5 -179t-179.5 -74t-179.5 74t-74.5 179h-53q1 -127 90.5 -216.5t216.5 -89.5t216.5 89.5t90.5 216.5h-53z" />
    <glyph glyph-name="shixinjiantoushang" unicode="&#xe645;" 
d="M512 460l-256 -320h512z" />
    <glyph glyph-name="shixinjiantouxia" unicode="&#xe646;" 
d="M256 460l256 -320l256 320h-512z" />
    <glyph glyph-name="coufenzi" unicode="&#xe71a;" 
d="M318 628q33 32 60 32t27 -32q64 -65 0 -129q-24 -19 -53 -17t-52.5 20.5t-23.5 39.5q-29 32 -11 59t53 27zM749 628q-33 32 -59.5 32t-26.5 -32q-65 -65 0 -129q12 -12 26 -15.5t25 -1t26.5 14t25 20t26.5 25.5q0 17 -0.5 26t-2.5 22.5t-6.5 20t-13 12t-20.5 5.5z
M232 456h173l86 -129l43 -43l86 172h215l43 -172v-86h-43v43v86l-43 -129v-258h-43v215h-43l-43 -215h-43v258v129l-86 -129l-87 86v-86l-43 -258h-43v215h-43l-43 -215h-43l43 258v86l-86 -43v-43h43v-172h-86v172v0v43v0z" />
    <glyph glyph-name="zhekou1" unicode="&#xe612;" 
d="M470 569q-99 0 -169.5 -70.5t-70.5 -169.5v-48v-240h308q99 0 169.5 70t70.5 170v48v240h-308zM365 117q-18 -1 -40 -1q-2 6 -3 20q-4 16 -5 21q5 0 16 -2h14q19 -1 18 16v86q-2 0 -8.5 -2t-10.5 -3q-10 -1 -32 -8l-3 46q4 2 14 4q12 1 40 8v76h-48v40h48v71h41v-71h45
v-40h-45v-68l43 9v-41q-4 -2 -16 -5q-17 -3 -27 -6v-107q2 -43 -41 -43zM697 308v0h-62v-194h-43v194h-76q0 -124 -50 -197q-3 3 -9 8q-19 17 -27 22q46 59 43 183v138q73 2 200 16l14 -40q-72 -8 -171 -14v-76h181v-40z" />
    <glyph glyph-name="sheng" unicode="&#xe602;" 
d="M333 197h389v-73h-389v73zM333 283v-49h389v36q6 37 -36 37h-329q-24 0 -24 -24zM722 88h-389v-43q0 -42 36 -36h317q42 -6 36 36v43zM510.5 742q-89.5 0 -171 -35t-140.5 -93.5t-94 -140.5t-35 -171.5t35 -171t94 -140.5t140.5 -94t171 -35t171.5 35t140.5 94
t93.5 140.5t35 171t-35 171.5t-93.5 140.5t-140.5 93.5t-171.5 35zM156 435q98 73 171 207q18 6 25.5 -0.5t4.5 -24.5q-73 -128 -176 -213q-37 -6 -25 31zM825 380q-42 73 -103 140q-134 -128 -286 -177h262q61 0 61 -60v-250q6 -61 -61 -61h-341q-61 0 -61 61v256
q-73 -19 -146 -31q-30 12 -6 37q176 30 335 103v286q18 24 36 0v-268q104 55 177 134q-25 31 -61 67q-12 31 24 31q140 -146 201 -250q6 -36 -31 -18z" />
    <glyph glyph-name="jiantou-copy" unicode="&#xe61f;" 
d="M300 405l-0.5 -1t-0.5 -2q-7 -13 -4.5 -28t13.5 -26l344 -325q14 -13 33 -12.5t32.5 14.5t13 33.5t-14.5 32.5l-309 292l308 296q14 13 14 32.5t-13 33.5q-14 14 -34 14q-19 0 -32 -13l-341 -328l-0.5 -1t-1 -1.5l-1.5 -1.5t-6 -9v0zM300 405z" />
    <glyph glyph-name="xiangshang-copy" unicode="&#xe606;" 
d="M512 856l-420 -468h208v-476h415v476h216z" />
    <glyph glyph-name="pinglun" unicode="&#xe638;" horiz-adv-x="1449" 
d="M987 703h-451q-28 0 -48 -20t-20 -48v-283q0 -28 20 -48t48 -20h182v-130l113 130h156q29 0 49 20t20 48v283q0 28 -20 48t-49 20v0zM1036 352q0 -20 -14.5 -34.5t-34.5 -14.5h-165l-84 -96v96h-202q-20 0 -34.5 14.5t-14.5 34.5v283q0 20 14.5 34.5t34.5 14.5h451
q20 0 34.5 -14.5t14.5 -34.5v-283v0zM610 528q-14 0 -24 -10t-10 -24t10 -23.5t24 -9.5t24 9.5t10 23.5t-10 24t-24 10v0zM762 528q-14 0 -24 -10t-10 -24t10 -23.5t24 -9.5t24 9.5t10 23.5t-10 24t-24 10v0zM913 528q-14 0 -24 -10t-10 -24t10 -23.5t24.5 -9.5t24.5 9.5
t10 23.5t-10 24t-25 10v0zM913 528z" />
    <glyph glyph-name="3" unicode="&#xe631;" 
d="M297 830q-7 0 -12 -5v0l-204 -204q-5 -5 -5 -12v-1v-654q0 -7 5 -12t12 -5h443q7 0 12 5t5 12v25q0 7 -5 12t-12 5h-383q-7 0 -12 5t-5 12v531q0 7 5 12t12 5h174q7 0 12 5t5 12v176q0 7 5 12t12 5h406q7 0 12 -5t5 -12v-259q0 -8 5 -13t12 -5h27q7 0 12 5t5 13v318
q0 7 -5 12t-12 5h-531zM284 621h-118l118 118v-118zM829 98q53 64 53 146q0 100 -74 169t-175 61q-84 -6 -145 -66.5t-67 -145.5q-8 -101 61 -175t169 -74q73 0 133 42l115 -115q6 -6 13.5 -6t13.5 6l17 18q6 5 6 12.5t-6 13.5zM755 109q-36 -29 -82 -34q-84 -11 -143 48
t-49 143q6 46 35 83q29 36 69.5 53t86.5 12q46 -6 83 -35q67 -52 67 -135t-67 -135zM409 646v-26q0 -7 5 -12t12 -5h277q7 0 12 5t5 12v26q0 7 -5 12t-12 5h-277q-7 0 -12 -5t-5 -12zM218 436h194q7 0 12 5t5 12v26q0 7 -5 12t-12 5h-194q-7 0 -12 -5t-5 -12v-26q0 -7 5 -12
t12 -5zM218 271h109q7 0 12 5t5 12v24q0 7 -5 12t-12 5h-109q-7 0 -12 -5t-5 -12v-24q0 -7 5 -12t12 -5zM218 103h109q7 0 12 5t5 12v26q0 7 -5 12t-12 5h-109q-7 0 -12 -5t-5 -12v-26q0 -7 5 -12t12 -5v0z" />
    <glyph glyph-name="10" unicode="&#xe623;" 
d="M9 384q0 -102 40 -195t107.5 -160.5t160.5 -107.5t195 -40t195 40t160.5 107.5t107.5 160.5t40 195t-40 195t-107.5 160.5t-160.5 107.5t-195 40t-195 -40t-160.5 -107.5t-107.5 -160.5t-40 -195zM929 384q0 -113 -56 -209t-152 -152t-209 -56t-209 56t-152 152t-56 209
t56 209t152 152t209 56t209 -56t152 -152t56 -209zM698 386q0 1 -0.5 3.5t-1.5 3.5q-1 7 -2 9t-2.5 4l-1.5 2q-4 6 -5 7h-1l-1.5 1.5t-0.5 1.5l-203 157q-14 12 -32 9.5t-29 -16t-9 -31.5t16 -29l160 -124l-160 -124q-14 -11 -16 -29t9 -32t29 -16t32 10l203 157q0 1 1 1.5
t1 1.5v0q1 0 6 7l1.5 2t2.5 4q1 3 3 11q0 1 0.5 2.5t0.5 2.5v2v0v2z" />
    <glyph glyph-name="pinpai" unicode="&#xe601;" 
d="M827 701q-63 64 -145 97.5t-172 33.5t-172 -33.5t-145.5 -97t-97.5 -145.5t-34 -172t34 -172t97.5 -145.5t145.5 -97.5t172 -34t172 34t145 97q86 87 117 202.5t0 231t-117 201.5v0zM786 108q-55 -56 -126.5 -85t-149.5 -29t-149.5 29t-126.5 85q-75 75 -101.5 175.5
t0 201t101.5 175.5q55 55 126.5 84.5t149.5 29.5t149.5 -29.5t126.5 -84.5t84.5 -126.5t29.5 -150t-29.5 -149.5t-84.5 -126v0zM362 379q11 0 18.5 7.5t7.5 18.5v152q0 20 17 35t42 15h126q25 0 42 -15t17 -35v-152q0 -11 8 -18.5t18.5 -7.5t18 7.5t7.5 18.5v152
q0 42 -32.5 72t-78.5 30h-126q-46 0 -78.5 -30t-32.5 -72v-152q0 -11 7.5 -18.5t18.5 -7.5v0zM671 361l-98 2l-32 91q-8 22 -31 22t-31 -22l-32 -91l-98 -2q-23 0 -30.5 -22.5t11.5 -36.5l77 -59l-28 -92q-7 -22 12 -36q5 -3 10 -5q2 0 4 -1h2h4h5q3 0 5 1q5 2 9 5l80 55
l80 -55q9 -6 19 -6q11 0 20 6q19 14 12 36l-28 92l77 59q19 14 12 36.5t-31 22.5v0zM561 262l-2 -1l27 -88l-76 52l-76 -52l27 88l-74 55l90 2h2l31 87l30 -85l1 -2l92 -2l-72 -54v0zM561 262z" />
    <glyph glyph-name="bijia" unicode="&#xe61d;" 
d="M450 484l-100 100q-15 14 -0.5 28.5t28.5 0.5l101 -101q14 -14 0 -28q-6 -6 -14 -6.5t-15 6.5zM531 483q-5 6 -5.5 14t5.5 15q7 7 101 100q14 15 28.5 0.5t0.5 -28.5l-101 -101q-14 -14 -29 0zM301 396q-8 0 -14 6t-6 14t6.5 14t13.5 6h428q9 0 15 -6t6 -14
q0 -7 -6 -13.5t-15 -6.5h-203v-123h203q9 0 15 -6t6 -14t-6 -14t-15 -6h-203v-163q0 -10 -6.5 -15.5t-14.5 -5.5t-14 5.5t-6 15.5v163h-184q-8 0 -14 6t-6 14t6 14t14 6h184v123h-184zM505 -114q-159 0 -289 95l29 29q117 -83 260 -83q91 0 174.5 35.5t143.5 95.5t95.5 143
t35.5 174t-35.5 174.5t-95.5 143.5t-143.5 95.5t-174.5 35.5t-174 -35.5t-143 -95.5t-95.5 -143.5t-35.5 -174.5q0 -135 75 -248l-30 -29q-86 125 -86 277q0 100 39 190.5t104.5 156t156 104t190 38.5t190 -38.5t156 -104t104 -156t38.5 -190t-38.5 -190t-104 -156
t-156 -104.5t-190.5 -39z" />
    <glyph glyph-name="lishi" unicode="&#xe66e;" 
d="M169 177q-151 0 -151 -107.5t151 -107.5t151 107.5t-151 107.5v0zM169 177zM988 738h-86q-10 0 -15.5 -6t-5.5 -16v-108h-44v151q0 10 -5.5 16t-15.5 6h-86q-10 0 -16 -6t-6 -16v-108h-43v108q0 10 -6 16t-16 6h-86q-10 0 -15.5 -6t-5.5 -16v-108h-44v65q0 10 -5.5 16
t-15.5 6h-86q-10 0 -16 -6t-6 -16v-108h-43v87q0 107 -151 107t-151 -107v-518v0q49 43 151 43t151 -43v0v43h43v-108q0 -9 6 -15t16 -6h86q10 0 15.5 6t5.5 15v151h44v-107q0 -10 5.5 -16t15.5 -6h86q10 0 16 6t6 16v107h43v-107q0 -10 6 -16t16 -6h86q10 0 15.5 6t5.5 16
v64h44v-108q0 -9 5.5 -15t15.5 -6h86q10 0 16 6t6 15v604q0 10 -6 16t-16 6v0zM363 263h-43v302h43v-302v0zM536 306h-44v302h44v-302v0zM708 306h-43v302h43v-302v0zM881 263h-44v302h44v-302v0zM881 263z" />
    <glyph glyph-name="xiangshangjiantouquan" unicode="&#xe654;" 
d="M512 832q-91 0 -174 -35.5t-143 -95.5t-95.5 -143t-35.5 -174t35.5 -174t95.5 -143t143 -95.5t174 -35.5t174 35.5t143 95.5t95.5 143t35.5 174t-35.5 174t-95.5 143t-143 95.5t-174 35.5zM649 419.5q-11 -9.5 -25 -8.5t-24 12l-50 61v-288q0 -15 -10 -25.5t-24.5 -10.5
t-25 10.5t-10.5 25.5v291l-57 -65q-10 -11 -24.5 -11.5t-25 9.5t-11 25t9.5 26l107 120q15 17 37.5 16.5t37.5 -18.5l99 -119q9 -11 8 -26t-12 -24.5z" />
    <glyph glyph-name="haitao1" unicode="&#xe603;" 
d="M507.5 890q-99.5 0 -190 -38.5t-156 -104t-104 -156t-38.5 -190t38.5 -189.5t104 -155.5t156 -104t190 -38.5t189.5 38.5t155.5 104t104 155.5t38.5 189.5t-38.5 190t-104 156t-155.5 104t-189.5 38.5zM917 523q-1 0 -2 -1l-2 -2q-36 -25 -52 -50q-17 -27 -18 -82
q-1 -23 -3 -30.5t-8 -9.5q-37 -14 -57 7q-3 3 4 23q14 45 2 72q-7 15 -18.5 26t-20 15.5t-22.5 11.5q-24 10 -27 19q-8 24 7.5 46t57.5 55q20 16 39.5 23t51.5 12q46 -62 68 -135zM254 96q-17 0 -49 3q-56 57 -88.5 130.5t-35.5 155.5q52 -6 77 -13q1 0 5 -3q16 -11 31 -14
h10q24 0 64.5 9.5t56.5 25.5q12 12 15 30q1 -1 3 -5q14 -28 35 -36q24 -10 56 6q8 3 8 4q9 -3 21 -19l3 -3q2 -3 4 -14q6 -40 33 -53q16 -7 55 -3q19 2 22 2q14 -5 18 -20q1 -3 1 -5q-7 -2 -26 -4q-39 -3 -53 -13q-22 -15 -35.5 -29t-23.5 -38q-6 -17 -4 -43q1 -11 -1 -15
q-7 -16 -14 -24t-19 -11q-6 -2 -19 1q-18 5 -30 5l-5 1q-28 1 -46 -1q-9 0 -23 -3q-9 -1 -15 -2q-16 -2 -31 -2v0zM507 -25q-119 0 -221 62h2.5h2.5q8 1 19 3t18 2q14 2 38 1l6 -1q6 0 17 -3q30 -7 51 -1q49 15 73 71q7 17 5 44q-1 11 0 15q5 12 12 19.5t23 18.5q4 1 26 4
q18 1 27.5 2.5t22 7.5t19.5 16q18 27 9 61q-13 41 -53 59q-15 6 -52 2q-16 -2 -21 -2q-1 2 -1 6q-5 28 -16 43l-3 3q-23 30 -48 38q-24 9 -55 -7q-6 -2 -8 -3l-3 6q-13 27 -33 35l-3 2q-19 8 -32 8q-10 0 -20 -4q-27 -11 -29 -48v-2q-11 -6 -36 -11.5t-41 -5.5q-1 0 -4 2
q-13 10 -25 13q-33 9 -92 15q11 107 70 194.5t153 138t202 50.5q84 0 160 -31t135 -87q-47 -11 -82 -40q-13 -10 -20.5 -16t-20 -18t-19.5 -21t-15.5 -23t-11.5 -27t-3.5 -29t5.5 -33q5 -16 16.5 -28.5t20.5 -17.5t23 -11q25 -11 30 -21q3 -7 -5 -30q-4 -15 -6 -25t1 -27.5
t16 -30.5q31 -31 74 -31q23 0 48 9q17 6 28 17t15.5 27t5.5 25.5t2 26.5q1 38 9 50q6 10 17 20q4 -31 4 -55q0 -116 -57 -214.5t-155.5 -155.5t-214.5 -57v0zM517 765q-6 0 -11 -2q-18 -4 -31 -14t-19.5 -26.5t-9 -27t-5.5 -29.5q-3 -21 -5 -31q-2 -6 -8 -20q-7 -16 -10 -27
t0 -29.5t18 -31.5q18 -15 41 -15t61 22q17 9 28.5 21.5t18 29.5t9 28t6.5 31l1 7q7 38 -30 82q-27 32 -54 32zM540 654q-6 -31 -11.5 -45t-21.5 -22q-23 -13 -30 -14q1 5 7 17q8 19 11 30q3 13 7 37q5 40 14 45q8 -6 16.5 -19.5t8.5 -20.5z" />
    <glyph glyph-name="xingxing01" unicode="&#xe604;" 
d="M541 877l132 -281q6 -18 25 -18l296 -44q19 -3 25.5 -22t-7.5 -33l-215 -223q-13 -12 -7 -29l51 -317q2 -20 -15 -32t-33 -1l-263 146q-16 11 -33 0l-263 -146q-18 -11 -35.5 1t-15.5 32l51 314q0 22 -7 29l-215 223q-14 16 -9 34t27 20l296 44q19 0 25 18l132 282
q8 21 29 22t29 -19z" />
  </font>
</defs>
</svg>
